<?xml version="1.0" encoding="UTF-8"?>
<svg id="Layer_1" xmlns="http://www.w3.org/2000/svg" version="1.1" viewBox="0 0 423.2 474.9">
  <!-- Generator: Adobe Illustrator 30.1.0, SVG Export Plug-In . SVG Version: 2.1.1 Build 136)  -->
  <defs>
    <style>
      .st0 {
        fill: #070707;
      }
    </style>
  </defs>
  <path class="st0" d="M161.7,26.2c-8.8,25.4,19.1,58.2,62.5,73.3,43.4,15.1,85.7,6.8,94.5-18.6,8.8-25.4-19.1-58.2-62.5-73.3C241.6,2.4,227.1,0,213.9,0,188.1,0,167.5,9.3,161.7,26.2h0Z"/>
  <path class="st0" d="M24.1,101.5c-31.5,36.6-32.3,87.6-1.8,113.8,30.5,26.2,80.7,17.7,112.2-19,31.4-36.6,32.3-87.6,1.8-113.8-11.9-10.3-27-15.2-42.7-15.2-24.4,0-50.4,11.9-69.5,34.2Z"/>
  <path class="st0" d="M15,291c-23.7,28.1-13.4,75.8,23,106.5,36.4,30.7,85.1,32.9,108.8,4.8,23.7-28.1,13.4-75.8-23-106.5-19.3-16.3-42-24.5-62.6-24.5s-35,6.5-46.1,19.7"/>
  <path class="st0" d="M228.5,393.8c-42.7,13.5-72.1,40.9-65.7,61.3,6.4,20.4,46.2,26,88.9,12.5,42.7-13.5,72.1-40.9,65.7-61.3-4.1-12.8-21.4-19.9-44.4-19.9s-28.8,2.4-44.5,7.3"/>
  <path class="st0" d="M356.7,77.4c-12.6,5-9.6,41.7,6.6,81.8,16.2,40.1,39.5,68.6,52,63.5,12.5-5,9.6-41.7-6.6-81.8-14.9-37-35.9-64.1-48.9-64.1s-2.1.2-3.1.6h0Z"/>
  <path class="st0" d="M366.4,321.2c-17.9,38.7-24,74-13.8,78.8,10.3,4.7,33.1-22.9,51-61.6,17.9-38.7,24-74,13.8-78.8-.8-.4-1.6-.5-2.5-.5-11.2,0-32,26.3-48.5,62.1h0Z"/>
</svg>