<?xml version="1.0" encoding="UTF-8"?>
<svg id="Layer_1" data-name="Layer 1" xmlns="http://www.w3.org/2000/svg" viewBox="0 0 423.16 474.89">
  <defs>
    <style>
      .cls-1 {
        fill: #fff;
      }
    </style>
  </defs>
  <path class="cls-1" d="M161.72,26.17c-8.8,25.4,19.14,58.21,62.52,73.33,43.38,15.13,85.67,6.77,94.47-18.64,8.8-25.4-19.14-58.21-62.51-73.33-14.61-5.11-29.15-7.53-42.29-7.53-25.84,0-46.38,9.32-52.18,26.17Z"/>
  <path class="cls-1" d="M24.13,101.48c-31.45,36.63-32.28,87.63-1.79,113.8,30.49,26.23,80.69,17.74,112.21-18.96,31.45-36.63,32.28-87.63,1.79-113.8-11.93-10.28-26.98-15.19-42.68-15.19-24.37,0-50.39,11.87-69.53,34.15Z"/>
  <path class="cls-1" d="M15.01,291.04c-23.67,28.08-13.4,75.76,22.96,106.46,36.36,30.7,85.1,32.87,108.76,4.79,23.67-28.08,13.4-75.76-22.96-106.46-19.26-16.27-41.97-24.51-62.58-24.51-18.31,0-35.02,6.51-46.12,19.72"/>
  <path class="cls-1" d="M228.51,393.79c-42.68,13.47-72.08,40.91-65.71,61.27,6.44,20.36,46.25,25.98,88.92,12.45,42.68-13.47,72.08-40.91,65.71-61.27-4.08-12.83-21.44-19.85-44.4-19.85-13.46,0-28.77,2.36-44.52,7.34"/>
  <path class="cls-1" d="M356.73,77.36c-12.57,5.04-9.57,41.74,6.63,81.82,16.2,40.15,39.48,68.55,52.05,63.5,12.5-5.04,9.57-41.68-6.63-81.82-14.93-37.02-35.91-64.08-48.93-64.08-1.08,0-2.11.19-3.12.57Z"/>
  <path class="cls-1" d="M366.36,321.23c-17.86,38.74-24.05,74.03-13.78,78.75,10.27,4.73,33.11-22.85,50.97-61.59,17.92-38.74,24.05-74.04,13.84-78.76-.77-.38-1.59-.51-2.55-.51-11.17,0-31.96,26.3-48.48,62.1Z"/>
</svg>