<svg width="884" height="213" viewBox="0 0 884 213" fill="none" xmlns="http://www.w3.org/2000/svg">
<path d="M72.216 11.6848C68.2854 23.0276 80.7616 37.6763 100.132 44.4306C119.501 51.1849 138.386 47.4515 142.317 36.1088C146.248 24.766 133.772 10.1173 114.402 3.36293C107.879 1.08297 101.385 0 95.5171 0C83.9803 0 74.8082 4.16091 72.216 11.6848Z" fill="white"/>
<path d="M10.7754 45.3156C-3.26756 61.6742 -3.63784 84.4451 9.97777 96.1304C23.5935 107.843 46.0109 104.053 60.0824 87.6655C74.1249 71.307 74.4957 48.536 60.88 36.8512C55.5533 32.2629 48.831 30.0684 41.8237 30.0684C30.9426 30.0684 19.3208 35.3693 10.7754 45.3156Z" fill="white"/>
<path d="M6.70169 129.959C-3.86607 142.498 0.719903 163.787 16.9562 177.496C33.1925 191.204 54.9548 192.173 65.5227 179.633C76.0905 167.094 71.5045 145.805 55.2681 132.096C46.6657 124.829 36.5252 121.152 27.3246 121.152C19.1496 121.152 11.6865 124.06 6.73019 129.959" fill="white"/>
<path d="M102.04 175.843C82.9838 181.856 69.8521 194.111 72.7001 203.202C75.5772 212.293 93.3516 214.801 112.408 208.76C131.465 202.746 144.596 190.492 141.748 181.4C139.925 175.672 132.176 172.537 121.922 172.537C115.912 172.537 109.075 173.591 102.04 175.814" fill="white"/>
<path d="M159.295 34.5442C153.683 36.7957 155.022 53.1829 162.257 71.0806C169.491 89.0071 179.888 101.689 185.5 99.4375C191.083 97.1861 189.773 80.8273 182.538 62.9012C175.872 46.3715 166.501 34.2878 160.69 34.2878C160.206 34.2878 159.75 34.3733 159.295 34.5442Z" fill="white"/>
<path d="M163.595 143.44C155.619 160.739 152.856 176.498 157.442 178.607C162.028 180.717 172.226 168.405 180.202 151.106C188.206 133.807 190.94 118.046 186.383 115.937C186.041 115.766 185.671 115.71 185.244 115.71C180.258 115.71 170.973 127.452 163.595 143.44Z" fill="white"/>
<path d="M296.3 159V157.5L299.301 156.45C301.301 155.85 302.601 154.95 303.201 153.749C303.901 152.549 304.251 150.949 304.251 148.949V70.3398C304.251 68.3396 303.901 66.7394 303.201 65.5392C302.501 64.3391 301.151 63.389 299.151 62.6889L296.3 61.4888V59.9886H332.755C347.656 59.9886 358.408 62.7389 365.008 68.2396C371.709 73.6402 375.059 80.791 375.059 89.692C375.059 95.3927 373.659 100.643 370.859 105.444C368.159 110.144 363.658 113.895 357.357 116.695C351.057 119.495 342.556 120.896 331.854 120.896H326.754V148.499C326.754 152.399 328.704 154.95 332.605 156.15L337.105 157.5V159H296.3ZM326.754 117.895H332.455C337.355 117.895 341.356 117.095 344.456 115.495C347.556 113.895 349.857 111.094 351.357 107.094C352.857 103.094 353.607 97.5429 353.607 90.4421C353.607 83.2413 352.757 77.6406 351.057 73.6402C349.457 69.6397 347.056 66.8894 343.856 65.3892C340.655 63.789 336.655 62.9889 331.854 62.9889H326.754V117.895Z" fill="white"/>
<path d="M415.849 161.25C408.248 161.25 401.647 159.7 396.047 156.6C390.446 153.399 386.095 148.899 382.995 143.098C379.995 137.298 378.495 130.497 378.495 122.696C378.495 114.895 380.095 108.144 383.295 102.443C386.596 96.7428 391.046 92.3423 396.647 89.242C402.347 86.1416 408.748 84.5914 415.849 84.5914C422.95 84.5914 429.3 86.1416 434.901 89.242C440.502 92.2423 444.902 96.5928 448.103 102.293C451.403 107.994 453.053 114.795 453.053 122.696C453.053 130.597 451.503 137.448 448.403 143.248C445.402 148.949 441.102 153.399 435.501 156.6C430.001 159.7 423.45 161.25 415.849 161.25ZM415.849 158.25C419.349 158.25 422.15 157.25 424.25 155.25C426.35 153.249 427.85 149.699 428.75 144.598C429.751 139.498 430.251 132.297 430.251 122.996C430.251 113.595 429.751 106.344 428.75 101.243C427.85 96.1428 426.35 92.5924 424.25 90.5921C422.15 88.5919 419.349 87.5918 415.849 87.5918C412.349 87.5918 409.498 88.5919 407.298 90.5921C405.198 92.5924 403.648 96.1428 402.647 101.243C401.747 106.344 401.297 113.595 401.297 122.996C401.297 132.297 401.747 139.498 402.647 144.598C403.648 149.699 405.198 153.249 407.298 155.25C409.498 157.25 412.349 158.25 415.849 158.25Z" fill="white"/>
<path d="M459.506 159V157.5L461.306 156.9C464.907 155.7 466.707 153.199 466.707 149.399V69.1397C466.707 67.1394 466.307 65.6393 465.507 64.6391C464.707 63.539 463.307 62.7389 461.306 62.2389L459.356 61.7888V60.2886L486.809 53.8379L488.61 55.188L488.01 76.1905V127.496C488.01 131.197 488.01 134.897 488.01 138.598C488.11 142.198 488.16 145.798 488.16 149.399C488.16 151.399 488.56 153.049 489.36 154.349C490.16 155.55 491.51 156.45 493.41 157.05L495.36 157.5V159H459.506Z" fill="white"/>
<path d="M502.281 159V157.5L504.531 156.75C507.932 155.65 509.632 153.199 509.632 149.399V69.1397C509.632 67.1394 509.232 65.6393 508.432 64.6391C507.632 63.639 506.232 62.8389 504.231 62.2389L502.281 61.7888V60.2886L529.734 53.8379L531.535 55.188L531.084 76.1905V149.399C531.084 153.399 532.735 155.9 536.035 156.9L538.135 157.5V159H502.281ZM557.938 159L531.234 121.496L558.988 95.8427C560.288 94.6426 561.038 93.3924 561.238 92.0923C561.538 90.6921 560.688 89.692 558.688 89.092L556.137 88.3419V86.8417H578.49V88.3419L573.989 89.542C571.789 90.2421 569.989 91.0922 568.589 92.0923C567.289 92.9924 565.688 94.2926 563.788 95.9927L546.986 111.745L573.839 149.099C575.44 151.299 576.94 152.999 578.34 154.199C579.74 155.4 581.54 156.4 583.741 157.2L584.341 157.5V159H557.938Z" fill="white"/>
<path d="M610.759 161.25C604.958 161.25 600.058 159.6 596.057 156.3C592.157 152.999 590.206 148.249 590.206 142.048C590.206 137.348 592.607 133.047 597.407 129.147C602.208 125.146 609.759 122.146 620.06 120.146C621.66 119.845 623.46 119.545 625.461 119.245C627.461 118.845 629.561 118.445 631.761 118.045V106.194C631.761 99.3931 630.911 94.6426 629.211 91.9423C627.611 89.142 625.06 87.7418 621.56 87.7418C619.16 87.7418 617.26 88.5419 615.859 90.1421C614.459 91.6422 613.559 94.2925 613.159 98.093L612.859 99.7432C612.659 104.044 611.609 107.194 609.709 109.194C607.809 111.194 605.458 112.195 602.658 112.195C600.058 112.195 597.907 111.395 596.207 109.794C594.507 108.194 593.657 106.044 593.657 103.344C593.657 99.2431 595.057 95.7927 597.857 92.9924C600.758 90.1921 604.558 88.0918 609.259 86.6917C613.959 85.2915 619.06 84.5914 624.56 84.5914C633.461 84.5914 640.312 86.7917 645.113 91.1922C650.013 95.4927 652.464 102.544 652.464 112.345V145.498C652.464 149.999 654.564 152.249 658.764 152.249H662.065L663.415 153.449C661.515 155.85 659.414 157.7 657.114 159C654.914 160.3 651.764 160.95 647.663 160.95C643.263 160.95 639.762 159.95 637.162 157.95C634.662 155.85 633.011 153.099 632.211 149.699C629.211 152.899 626.111 155.65 622.91 157.95C619.81 160.15 615.759 161.25 610.759 161.25ZM619.91 152.099C621.91 152.099 623.76 151.649 625.461 150.749C627.261 149.749 629.361 148.249 631.761 146.249V121.046C630.761 121.246 629.761 121.446 628.761 121.646C627.761 121.846 626.611 122.046 625.311 122.246C620.71 123.446 617.01 125.496 614.209 128.396C611.509 131.197 610.159 134.997 610.159 139.798C610.159 143.898 611.109 146.999 613.009 149.099C614.909 151.099 617.21 152.099 619.91 152.099Z" fill="white"/>
<path d="M698.306 161.25C692.405 161.25 687.104 159.95 682.404 157.35C677.703 154.65 673.953 150.549 671.153 145.048C668.452 139.448 667.102 132.297 667.102 123.596C667.102 114.795 668.652 107.544 671.753 101.843C674.853 96.0428 678.953 91.7423 684.054 88.9419C689.155 86.0416 694.705 84.5914 700.706 84.5914C704.206 84.5914 707.557 84.9415 710.757 85.6416C713.957 86.3416 716.808 87.3918 719.308 88.7919V69.2897C719.308 67.1894 718.958 65.6393 718.258 64.6391C717.658 63.639 716.308 62.9389 714.207 62.5389L711.357 61.9388V60.4387L738.66 53.8379L740.31 55.188L739.71 76.1905V149.549C739.71 151.549 740.06 153.199 740.761 154.499C741.461 155.7 742.761 156.55 744.661 157.05L746.011 157.5V159L720.358 160.65L719.008 155.25C716.308 157.05 713.207 158.5 709.707 159.6C706.307 160.7 702.506 161.25 698.306 161.25ZM707.007 155.7C711.207 155.7 715.058 154.449 718.558 151.949V92.3923C714.858 89.9921 711.057 88.7919 707.157 88.7919C702.356 88.7919 698.256 91.5922 694.855 97.1929C691.455 102.694 689.755 111.395 689.755 123.296C689.755 135.197 691.355 143.598 694.555 148.499C697.756 153.299 701.906 155.7 707.007 155.7Z" fill="white"/>
<path d="M790.599 161.25C782.998 161.25 776.397 159.7 770.797 156.6C765.196 153.399 760.846 148.899 757.745 143.098C754.745 137.298 753.245 130.497 753.245 122.696C753.245 114.895 754.845 108.144 758.045 102.443C761.346 96.7428 765.796 92.3423 771.397 89.242C777.098 86.1416 783.498 84.5914 790.599 84.5914C797.7 84.5914 804.051 86.1416 809.651 89.242C815.252 92.2423 819.652 96.5928 822.853 102.293C826.153 107.994 827.803 114.795 827.803 122.696C827.803 130.597 826.253 137.448 823.153 143.248C820.153 148.949 815.852 153.399 810.251 156.6C804.751 159.7 798.2 161.25 790.599 161.25ZM790.599 158.25C794.099 158.25 796.9 157.25 799 155.25C801.1 153.249 802.6 149.699 803.501 144.598C804.501 139.498 805.001 132.297 805.001 122.996C805.001 113.595 804.501 106.344 803.501 101.243C802.6 96.1428 801.1 92.5924 799 90.5921C796.9 88.5919 794.099 87.5918 790.599 87.5918C787.099 87.5918 784.248 88.5919 782.048 90.5921C779.948 92.5924 778.398 96.1428 777.398 101.243C776.497 106.344 776.047 113.595 776.047 122.996C776.047 132.297 776.497 139.498 777.398 144.598C778.398 149.699 779.948 153.249 782.048 155.25C784.248 157.25 787.099 158.25 790.599 158.25Z" fill="white"/>
<path d="M862.31 161.25C855.909 161.25 850.908 159.65 847.308 156.45C843.808 153.249 842.057 148.149 842.057 141.148V89.842H831.706V88.3419L835.307 87.7418C838.407 87.0417 841.057 86.0416 843.258 84.7414C845.558 83.4413 847.808 81.6911 850.008 79.4908L862.31 65.8393H863.81L863.36 86.8417H880.162V89.842H863.21V143.848C863.21 147.349 863.96 149.999 865.46 151.799C867.06 153.599 869.061 154.499 871.461 154.499C873.561 154.499 875.411 153.999 877.011 152.999C878.612 151.899 880.212 150.449 881.812 148.649L883.312 150.149C881.312 153.549 878.562 156.25 875.061 158.25C871.561 160.25 867.31 161.25 862.31 161.25Z" fill="white"/>
</svg>
