<?xml version="1.0" encoding="utf-8"?>
<!-- Generator: Adobe Illustrator 22.0.0, SVG Export Plug-In . SVG Version: 6.00 Build 0)  -->
<svg version="1.1" id="Layer_1" xmlns="http://www.w3.org/2000/svg" xmlns:xlink="http://www.w3.org/1999/xlink" x="0px" y="0px"
	 viewBox="0 0 9206.2 1391.8" style="enable-background:new 0 0 9206.2 1391.8;" xml:space="preserve">
<style type="text/css">
	.st0{fill:#E6007A;}
	.st1{font-family:'MyriadPro-Regular';}
	.st2{font-size:12px;}
	.st3{fill:#FFFFFF;stroke:#000000;}
</style>
<ellipse class="st0" cx="663" cy="129.4" rx="254.3" ry="147.9"/>
<ellipse class="st0" cx="663" cy="1243.8" rx="254.3" ry="147.9"/>
<ellipse transform="matrix(0.5 -0.866 0.866 0.5 -263.1378 360.2856)" class="st0" cx="180.4" cy="408" rx="254.3" ry="148"/>
<ellipse transform="matrix(0.5 -0.866 0.866 0.5 -263.132 1474.6616)" class="st0" cx="1145.5" cy="965.2" rx="254.3" ry="147.9"/>
<ellipse transform="matrix(0.866 -0.5 0.5 0.866 -458.4075 219.5506)" class="st0" cx="180.5" cy="965.2" rx="148" ry="254.3"/>
<ellipse transform="matrix(0.866 -0.5 0.5 0.866 -50.5495 627.4641)" class="st0" cx="1145.6" cy="408.1" rx="147.9" ry="254.3"/>
<text transform="matrix(1 0 0 1 1745.8267 401.4742)" class="st1 st2">Lorem ipsum</text>
<path class="st3" d="M2522.7,449.6h-513.5v147.9h492.7V795h-492.7v300.9h-233.4V252.2h747V449.6z"/>
<path class="st3" d="M2779.2,1071.4c-61.5-28.7-109.7-68.9-144.5-120.6s-52.3-111.2-52.3-178.3c0-66,16.8-124.7,50.3-176
	s80-91.2,139.2-119.5s126-42.5,200.2-42.5c75.4,0,140.6,16.6,195.7,49.8s97.4,80.2,126.8,141.2c29.4,60.9,44.2,132.5,44.2,214.6
	h-507.4c15.8,34.1,42.4,60.3,79.9,78.5s84.7,27.3,141.7,27.3c47.2,0,94.3-6.2,141.2-18.5s89.6-30,128.2-52.9v146.2
	c-45,30.4-95.8,53.6-152.4,69.7s-117.4,24.2-182.2,24.2C2910.3,1114.5,2840.7,1100.1,2779.2,1071.4z M3125.1,701.6
	c-10.5-33.8-28.4-59.7-53.7-77.9s-56.7-27.3-94.2-27.3c-39.4,0-72.7,9.5-99.8,28.4s-45.8,44.5-56,76.8H3125.1z"/>
<path class="st3" d="M3667.9,229.7v866.2h-230V229.7H3667.9z"/>
<path class="st3" d="M4024.5,229.7v866.2h-230V229.7H4024.5z"/>
<path class="st3" d="M4317.5,1072c-62.2-28.3-110.5-68.1-144.8-119.5s-51.5-110.6-51.5-177.8s17.2-126.5,51.5-178
	s82.6-91.5,144.8-119.8s134.1-42.5,215.4-42.5c81.4,0,153.2,14.2,215.4,42.5s110.5,68.2,144.8,119.8s51.5,110.9,51.5,178
	s-17.2,126.4-51.5,177.8s-82.6,91.2-144.8,119.5s-134.1,42.5-215.4,42.5C4451.6,1114.5,4379.8,1100.3,4317.5,1072z M4374.6,865
	c14.4,25.3,35.2,44.7,62.2,58.2s59.1,20.2,96.2,20.2c37.1,0,69.2-6.7,96.2-20.2s47.6-32.9,61.9-58.2s21.4-55.4,21.4-90.3
	s-7.2-65.1-21.7-90.6s-35.1-45-61.9-58.5s-58.8-20.2-95.9-20.2c-37.1,0-69.2,6.8-96.2,20.2s-47.7,33-62.2,58.5s-21.7,55.7-21.7,90.6
	S4360.2,839.7,4374.6,865z"/>
<path class="st3" d="M5185.4,453l146.8,413.4l153-413.4H5704l151.3,414.5L6002.1,453h230L5992,1095.9h-234.5l-163.1-432.5
	L5429,1095.9h-234.6L4954.8,453H5185.4z"/>
<path class="st3" d="M6972.1,1011c-29.8,34.1-72.7,59.9-128.5,77.3s-122.6,26.2-200.2,26.2c-79.5,0-149.5-9.8-210.1-29.2
	s-107.9-47-142-82.4c-34.1-35.4-52.3-76.4-54.6-122.9h233.4c7.5,26.2,26.9,46.5,58.2,60.8s72.8,21.4,124.6,21.4
	c46.1,0,80.9-4.5,104.3-13.5s35.2-22.3,35.2-39.9c0-10.1-3.8-18.3-11.5-24.5s-20.1-11.2-37.1-15.2s-40.4-7-70-9.3l-113.6-8.4
	c-109.9-8.2-188.2-29.1-235.1-62.4s-70.3-79.1-70.3-137.2c0-47.2,14.9-87.1,44.7-119.5s71.9-56.8,126.3-73.1s118.1-24.5,191.2-24.5
	c71.2,0,135.3,9.4,192.1,28.1s102.2,45,136.1,78.8s53.3,72.6,58.2,116.4h-233.4c-6-22.5-22.5-41-49.5-55.7s-65-21.9-114.2-21.9
	c-40.9,0-72.1,4.4-93.7,13.2s-32.3,21.3-32.3,37.4c0,13.9,6.8,24.4,20.2,31.5s38.1,12,73.7,14.6l149,11.2
	c72.8,5.2,130.7,16.1,173.8,32.6s73.9,38.3,92.2,65.5s27.6,60.5,27.6,99.8C7016.8,935.2,7001.9,976.8,6972.1,1011z"/>
<path class="st3" d="M7344.2,229.7v325.1c28.1-39.4,62.4-69.3,102.9-89.7s84.5-30.7,132.2-30.7c60.8,0,113.1,12.3,156.9,36.8
	s77.3,59.5,100.4,104.9s34.6,98.8,34.6,160.3v359.4h-230V770.2c0-48-12.2-84.8-36.6-110.2s-59.2-38.2-104.6-38.2
	c-31.9,0-59.5,6.7-83,20s-41.4,32.4-54,57.4s-18.8,54.1-18.8,87.5v309.4h-230V229.7H7344.2z"/>
<path class="st3" d="M7987.3,220.4c11.1-16.7,26.7-29.6,47-38.8s43.7-13.8,70.3-13.8s50.1,4.6,70.3,13.8s36,22.1,47.2,38.8
	s16.9,36.3,16.9,58.8s-5.6,42.2-16.9,59s-27,29.9-47.2,39.1s-43.7,13.8-70.3,13.8s-50-4.6-70.3-13.8s-35.9-22.2-47-39.1
	s-16.6-36.5-16.6-59S7976.3,237.1,7987.3,220.4z M8104.6,465.9l115.3-22.5v652.5h-230V443.4L8104.6,465.9z"/>
<path class="st3" d="M8576.5,453v123.2c31.5-45.4,70.2-80.3,116.2-104.9s97-36.8,153.3-36.8c62.2,0,117.5,14.2,165.7,42.5
	s85.6,68.2,112.2,119.8s39.9,110.9,39.9,178c0,66.8-13.3,125.9-39.9,177.5s-64,91.5-112.2,119.8s-103.4,42.5-165.7,42.5
	c-56.2,0-107.4-12.6-153.5-37.7s-84.8-60.6-115.9-106.3v311h-230V453H8576.5z M8615.6,859.1c21.2,24.8,45.8,44.2,73.7,58.2
	s57.1,21.1,87.5,21.1c30,0,56.7-7,80.2-21.1s41.7-33.5,54.8-58.2s19.7-52.9,19.7-84.4s-6.6-59.7-19.7-84.7s-31.4-44.4-54.8-58.5
	s-50.2-21.1-80.2-21.1c-30.4,0-59.5,7-87.5,21.1s-52.5,33.5-73.7,58.5s-37,53.2-47.5,84.7C8578.6,806.2,8594.4,834.4,8615.6,859.1z"
	/>
</svg>
