<?xml version="1.0" encoding="utf-8"?>
<!-- Generator: Adobe Illustrator 22.0.0, SVG Export Plug-In . SVG Version: 6.00 Build 0)  -->
<svg version="1.1" id="Layer_1" xmlns="http://www.w3.org/2000/svg" xmlns:xlink="http://www.w3.org/1999/xlink" x="0px" y="0px"
	 viewBox="0 0 9206.2 1391.8" style="enable-background:new 0 0 9206.2 1391.8;" xml:space="preserve">
<style type="text/css">
	.st0{fill:#E6007A;}
	.st1{font-family:'MyriadPro-Regular';}
	.st2{font-size:12px;}
	.st3{fill:#FFFFFF;stroke:#000000;}
	.st4{font-family:'Unbounded-Bold';}
	.st5{font-size:1124.9458px;}
</style>
<ellipse class="st0" cx="663" cy="129.4" rx="254.3" ry="147.9"/>
<ellipse class="st0" cx="663" cy="1243.8" rx="254.3" ry="147.9"/>
<ellipse transform="matrix(0.5 -0.866 0.866 0.5 -263.1378 360.2856)" class="st0" cx="180.4" cy="408" rx="254.3" ry="148"/>
<ellipse transform="matrix(0.5 -0.866 0.866 0.5 -263.132 1474.6616)" class="st0" cx="1145.5" cy="965.2" rx="254.3" ry="147.9"/>
<ellipse transform="matrix(0.866 -0.5 0.5 0.866 -458.4075 219.5506)" class="st0" cx="180.5" cy="965.2" rx="148" ry="254.3"/>
<ellipse transform="matrix(0.866 -0.5 0.5 0.866 -50.5495 627.4641)" class="st0" cx="1145.6" cy="408.1" rx="147.9" ry="254.3"/>
<text transform="matrix(1 0 0 1 1745.8267 401.4742)" class="st1 st2">Lorem ipsum</text>
<text transform="matrix(1 0 0 1 1697.5576 1095.8978)" class="st3 st4 st5">Fellowship</text>
</svg>
